<svg version="1.1" id="Layer_1" xmlns="http://www.w3.org/2000/svg" xmlns:xlink="http://www.w3.org/1999/xlink" x="0px" y="0px"
	 width="100%" viewBox="0 0 784 512" enable-background="new 0 0 784 512" xml:space="preserve">
<path fill="#000000" opacity="1.000000" stroke="none" 
	d="
M644.496521,242.433395 
	C620.688904,277.796997 594.870422,311.100647 563.812561,339.917542 
	C520.748352,379.874573 470.322174,404.223755 411.391632,409.980438 
	C378.232025,413.219666 346.811432,406.204895 316.123322,394.526001 
	C275.035889,378.889404 238.832886,355.288574 204.910080,327.579315 
	C177.522171,305.207947 156.106339,277.608063 134.071030,250.470215 
	C128.194550,243.232925 122.987488,235.454742 117.182487,228.156006 
	C111.065811,220.465393 102.514244,215.785965 94.336372,210.708786 
	C90.567329,208.368805 85.651382,210.505402 81.502853,207.430710 
	C84.647987,201.467117 90.397209,200.441818 96.062576,199.731735 
	C102.715538,198.897888 109.117302,201.004715 114.824554,203.867691 
	C133.365768,213.168610 153.663712,215.219452 173.566742,218.706802 
	C205.550476,224.310913 237.823990,227.386520 270.280304,228.921158 
	C302.763214,230.457047 335.255554,230.212601 367.710449,229.443146 
	C405.679138,228.542953 443.364014,223.873856 480.914490,218.079437 
	C522.208740,211.707367 562.146484,200.432114 601.670593,187.116989 
	C634.812744,175.951813 667.541565,163.623093 700.768738,152.729630 
	C705.449890,151.194916 710.310303,148.806213 715.479675,150.974884 
	C715.657227,153.640411 713.581970,153.867355 712.406006,154.870331 
	C698.233948,166.958038 683.368103,178.310715 673.845154,194.949722 
	C667.062317,206.800919 659.777710,218.366562 652.635071,230.009323 
	C650.110413,234.124527 647.342712,238.090622 644.496521,242.433395 
M362.362213,384.926971 
	C384.444641,389.274109 406.646118,390.217316 428.821472,386.125946 
	C462.479584,379.915955 493.695465,367.510132 521.877258,347.895630 
	C531.578918,341.143219 541.034180,334.030762 549.783447,326.068787 
	C551.923584,324.121277 555.285400,322.455902 554.047607,318.377747 
	C552.454285,313.128326 551.079163,307.811646 549.433044,302.579651 
	C548.150696,298.503815 545.706360,296.372040 541.140198,298.272766 
	C535.764832,300.510284 530.252869,302.431702 524.937134,304.798004 
	C477.085663,326.099487 426.895081,336.018250 374.613525,336.414429 
	C354.424133,336.567383 334.408630,334.584045 314.335663,333.136993 
	C306.339050,332.560516 301.935852,336.387756 301.138794,344.542328 
	C300.848083,347.516266 301.093109,350.539459 300.875702,353.524292 
	C300.023682,365.220886 300.022064,365.137787 311.001404,369.320740 
	C327.497406,375.605438 344.111420,381.474915 362.362213,384.926971 
M424.323303,264.087463 
	C414.236694,265.132477 404.157806,266.260193 394.061279,267.198639 
	C384.435181,268.093353 380.458862,272.042236 380.265625,281.872467 
	C380.069366,291.854553 380.129761,301.844360 380.243744,311.828888 
	C380.318237,318.357178 384.659607,323.008820 391.241486,323.641632 
	C394.037933,323.910492 396.902832,323.760101 399.714417,323.529572 
	C412.966980,322.443054 426.250732,321.702759 439.419464,319.696503 
	C460.922577,316.420410 481.429474,309.670532 501.713440,302.099091 
	C504.243134,301.154816 505.000549,299.640503 504.989166,296.820190 
	C504.940125,284.669189 504.258362,272.548950 503.766815,260.417542 
	C503.369690,250.615860 500.129669,247.670242 490.551605,250.045120 
	C468.916687,255.409500 447.318848,260.880219 424.323303,264.087463 
M299.218201,321.223938 
	C304.500122,321.914490 309.767365,322.757751 315.066772,323.266083 
	C329.312500,324.632660 343.497223,326.823883 357.856689,326.737305 
	C364.033234,326.700073 369.293182,322.818390 369.406311,317.224609 
	C369.668640,304.254456 370.635132,291.233368 368.699402,278.307434 
	C367.782928,272.187683 363.670410,268.186188 358.188690,268.251007 
	C330.521667,268.578003 302.878937,268.348480 275.271942,266.150360 
	C269.132996,265.661560 265.724457,268.504242 265.323822,274.742645 
	C264.587128,286.215240 264.984802,297.723450 265.625732,309.206482 
	C265.814606,312.590607 267.429718,314.548431 271.023102,315.243195 
	C280.173431,317.012299 289.261017,319.106049 299.218201,321.223938 
M576.429871,265.876556 
	C584.532349,253.892426 583.473389,240.150589 583.100952,226.842590 
	C582.930542,220.756088 578.826965,219.322739 572.995056,221.787476 
	C557.512756,228.330688 542.054199,234.933578 526.669189,241.701401 
	C519.789124,244.727921 516.236572,250.230072 516.229309,257.848083 
	C516.219482,268.172363 516.202576,278.496826 516.268250,288.820709 
	C516.279419,290.568207 515.726013,292.494507 517.424377,294.316956 
	C522.917053,294.022400 527.600525,290.943726 532.583740,288.842804 
	C547.616760,282.504974 562.620911,276.089294 576.429871,265.876556 
M249.559219,267.020477 
	C248.844315,266.601013 248.178558,266.016937 247.407181,265.786530 
	C233.684341,261.687592 219.451508,260.011658 205.465454,257.171661 
	C200.712570,256.206573 196.728638,260.353668 196.317383,265.625641 
	C195.929779,270.594452 196.390747,275.577881 196.587250,280.559906 
	C196.817047,286.386292 199.899796,289.014191 204.793869,290.972473 
	C214.827316,294.987152 224.711929,299.372162 234.706802,303.485718 
	C238.851440,305.191498 243.126434,306.579254 247.333267,308.135651 
	C251.167160,309.554047 252.973740,308.418884 252.864868,304.158722 
	C252.690643,297.340637 253.097733,290.487976 252.561111,283.705139 
	C252.134354,278.310944 252.833450,272.652283 249.559219,267.020477 
M637.067993,201.964798 
	C637.029114,197.078812 634.859070,195.473022 630.121704,197.738724 
	C619.788940,202.680573 609.647522,208.024551 599.455627,213.258102 
	C596.197388,214.931229 594.939331,217.990158 594.342590,221.380936 
	C592.929688,229.410431 592.156555,237.495697 592.195557,245.658508 
	C592.233826,253.661209 595.176270,255.621704 602.643555,252.535233 
	C604.670349,251.697510 606.578308,250.586746 607.946167,248.901566 
	C619.487488,234.683029 630.636719,220.208267 637.067993,201.964798 
M289.444702,342.149261 
	C289.255371,341.167847 288.909180,340.187561 288.902344,339.204865 
	C288.860107,333.126801 285.897522,330.045776 279.871368,328.795349 
	C269.608826,326.665833 259.474548,323.915070 249.295624,321.388062 
	C246.713486,320.747040 244.201599,319.769714 241.593887,319.298737 
	C238.431152,318.727509 235.868469,320.218536 234.654709,323.031158 
	C233.422836,325.885773 236.030609,327.182312 237.922943,328.437744 
	C241.807022,331.014526 245.763138,333.486328 249.739624,335.919556 
	C260.393860,342.438934 271.022003,349.003723 281.765411,355.373596 
	C287.687256,358.884766 289.615631,357.625885 289.736145,350.526581 
	C289.778534,348.030884 289.629974,345.531952 289.444702,342.149261 
M560.335754,293.906433 
	C561.760803,299.409760 563.185852,304.913086 565.013062,311.969330 
	C576.852295,297.944702 590.148438,287.246002 597.548401,271.406006 
	C593.153931,268.974945 589.992798,270.485535 586.971008,272.252441 
	C578.047241,277.470154 570.098999,284.105774 561.554626,289.877106 
	C560.288147,290.732513 559.679932,291.712402 560.335754,293.906433 
M173.865875,256.408417 
	C174.606949,265.711182 179.491760,272.960022 185.439880,279.668854 
	C185.537750,279.779236 186.029816,279.540131 186.510193,279.421631 
	C187.435593,273.206085 186.666870,266.911316 186.835922,260.641724 
	C186.911850,257.826233 187.396255,254.747101 183.740814,253.655823 
	C180.212387,252.602463 176.556870,251.405075 173.865875,256.408417 
M215.593185,305.960785 
	C212.802261,304.975555 210.011322,303.990356 205.958099,302.559540 
	C209.644592,307.067291 213.114655,309.797150 216.755173,312.311035 
	C219.984848,314.541229 222.240463,313.778076 223.456375,310.060638 
	C221.476257,307.629486 218.653275,307.382446 215.593185,305.960785 
M646.386597,187.877502 
	C646.322754,188.198151 646.145142,188.556076 646.233887,188.826691 
	C646.295837,189.015594 646.839722,189.265793 646.969238,189.181763 
	C653.395691,185.012115 659.516602,180.494415 663.927002,174.057037 
	C656.627930,176.546112 651.524719,181.816055 646.386597,187.877502 
z"/>
<path fill="#000000" opacity="1.000000" stroke="none" 
	d="
M524.965698,95.912567 
	C539.626709,104.263962 550.482117,115.633904 556.945679,130.926666 
	C558.187500,133.864914 559.683533,137.109818 556.726746,139.866577 
	C555.398193,140.036316 554.863281,139.416306 554.454468,138.661758 
	C545.426697,121.997292 531.133484,112.910461 512.515869,112.524162 
	C493.125275,112.121819 478.974609,122.632790 469.443176,138.805634 
	C461.566833,152.170090 455.506042,166.455917 453.974854,182.222885 
	C453.831268,183.701324 453.510376,185.216492 452.962646,186.591446 
	C451.424438,190.452789 448.651459,193.096024 444.358032,193.066666 
	C439.940765,193.036469 438.105560,189.746368 437.099121,185.985657 
	C435.112762,178.563217 435.886078,171.022171 436.967834,163.642853 
	C439.898224,143.653351 446.488037,124.908684 460.730255,110.169640 
	C474.407990,96.014824 490.679535,86.831612 511.592468,90.806602 
	C516.225464,91.687218 520.400879,93.794876 524.965698,95.912567 
z"/>
<path fill="#000000" opacity="1.000000" stroke="none" 
	d="
M264.910156,61.894909 
	C298.687714,68.867607 340.837067,103.915955 337.504425,122.938278 
	C312.913025,96.652222 282.478027,83.025841 247.377579,81.537849 
	C212.189056,80.046127 180.790726,90.287468 157.012100,118.320747 
	C154.805664,115.078117 156.071381,112.961800 157.368973,111.102554 
	C179.865356,78.869019 209.742889,60.127903 250.068115,60.606594 
	C254.899673,60.663952 259.728455,60.818768 264.910156,61.894909 
z"/>
<path fill="#000000" opacity="1.000000" stroke="none" 
	d="
M591.460693,47.518318 
	C606.698059,61.228481 615.810303,74.582779 613.825989,81.951813 
	C588.243164,54.097767 555.989746,43.235962 519.729431,44.719460 
	C483.042816,46.220402 454.109344,64.881607 428.860504,90.580116 
	C427.173096,87.012970 428.840851,84.888908 430.240967,82.976852 
	C453.404266,51.344334 482.730896,29.144741 522.711609,24.136639 
	C543.375061,21.548279 562.335754,27.195349 579.603149,38.596310 
	C583.625488,41.252083 587.340515,44.373295 591.460693,47.518318 
z"/>
<path fill="#000000" opacity="1.000000" stroke="none" 
	d="
M270.017151,119.683617 
	C290.170685,128.011276 302.646088,142.651596 308.815063,163.012161 
	C312.710388,175.868698 313.137695,188.858398 311.225830,202.048035 
	C310.558929,206.649109 308.606812,209.999939 303.620026,210.533981 
	C299.290375,210.997635 296.071777,208.118271 294.772125,202.767807 
	C292.848816,194.849716 293.421417,186.571350 290.869598,178.683990 
	C285.887726,163.285614 278.364319,150.214600 263.217926,142.450928 
	C244.176376,132.690720 219.021652,138.204498 206.213501,155.483841 
	C205.384567,156.602127 205.003021,158.388214 202.551773,158.075104 
	C200.878067,155.790909 202.123749,153.535278 203.357254,151.492447 
	C212.448166,136.436920 224.936981,125.398376 241.681320,119.507698 
	C250.991943,116.232208 260.324036,116.760544 270.017151,119.683617 
z"/>
</svg>